<mxfile host="app.diagrams.net" agent="Mozilla/5.0 (X11; Linux x86_64) AppleWebKit/537.36 (KHTML, like Gecko) Chrome/131.0.0.0 Safari/537.36" version="25.0.3">
  <diagram id="sAPiVkavU_vM4pkCJuUF" name="ページ1">
    <mxGraphModel dx="2889" dy="1082" grid="1" gridSize="10" guides="1" tooltips="1" connect="1" arrows="1" fold="1" page="1" pageScale="1" pageWidth="827" pageHeight="1169" math="0" shadow="0">
      <root>
        <mxCell id="0" />
        <mxCell id="1" parent="0" />
        <mxCell id="6XL7DA_fFjma-8zsQZxB-3" value="" style="group" vertex="1" connectable="0" parent="1">
          <mxGeometry x="-590" y="83" width="1460" height="477" as="geometry" />
        </mxCell>
        <mxCell id="2hfiS1e1vaS1avcaZc8Z-17" value="&lt;font style=&quot;font-size: 24px;&quot;&gt;wait for the SIGCHLD&lt;/font&gt;" style="text;html=1;align=right;verticalAlign=middle;whiteSpace=wrap;rounded=0;fontFamily=Architects Daughter;fontSource=https%3A%2F%2Ffonts.googleapis.com%2Fcss%3Ffamily%3DArchitects%2BDaughter;sketch=1;curveFitting=1;jiggle=2;strokeColor=none;" parent="6XL7DA_fFjma-8zsQZxB-3" vertex="1">
          <mxGeometry x="560" y="394" width="268.5" height="40" as="geometry" />
        </mxCell>
        <mxCell id="2hfiS1e1vaS1avcaZc8Z-2" value="&lt;font style=&quot;font-size: 24px;&quot;&gt;run&lt;/font&gt;" style="rounded=0;whiteSpace=wrap;html=1;sketch=1;hachureGap=4;jiggle=2;curveFitting=1;fontFamily=Architects Daughter;fontSource=https%3A%2F%2Ffonts.googleapis.com%2Fcss%3Ffamily%3DArchitects%2BDaughter;fillColor=none;" parent="6XL7DA_fFjma-8zsQZxB-3" vertex="1">
          <mxGeometry x="794" width="70" height="30" as="geometry" />
        </mxCell>
        <mxCell id="2hfiS1e1vaS1avcaZc8Z-4" value="" style="endArrow=none;html=1;rounded=0;sketch=1;hachureGap=4;jiggle=2;curveFitting=1;fontFamily=Architects Daughter;fontSource=https%3A%2F%2Ffonts.googleapis.com%2Fcss%3Ffamily%3DArchitects%2BDaughter;entryX=0.5;entryY=1;entryDx=0;entryDy=0;" parent="6XL7DA_fFjma-8zsQZxB-3" edge="1">
          <mxGeometry width="50" height="50" relative="1" as="geometry">
            <mxPoint x="830" y="477" as="sourcePoint" />
            <mxPoint x="830" y="30" as="targetPoint" />
          </mxGeometry>
        </mxCell>
        <mxCell id="2hfiS1e1vaS1avcaZc8Z-15" value="&lt;span style=&quot;font-size: 24px;&quot;&gt;start the init process asynchronously&lt;/span&gt;" style="text;html=1;align=right;verticalAlign=middle;whiteSpace=wrap;rounded=0;fontFamily=Architects Daughter;fontSource=https%3A%2F%2Ffonts.googleapis.com%2Fcss%3Ffamily%3DArchitects%2BDaughter;sketch=1;curveFitting=1;jiggle=2;strokeColor=none;" parent="6XL7DA_fFjma-8zsQZxB-3" vertex="1">
          <mxGeometry x="390.5" y="123" width="438" height="40" as="geometry" />
        </mxCell>
        <mxCell id="2hfiS1e1vaS1avcaZc8Z-16" value="&lt;font style=&quot;font-size: 24px;&quot;&gt;wait until the result of the initialization&lt;/font&gt;" style="text;html=1;align=right;verticalAlign=middle;whiteSpace=wrap;rounded=0;fontFamily=Architects Daughter;fontSource=https%3A%2F%2Ffonts.googleapis.com%2Fcss%3Ffamily%3DArchitects%2BDaughter;sketch=1;curveFitting=1;jiggle=2;strokeColor=none;" parent="6XL7DA_fFjma-8zsQZxB-3" vertex="1">
          <mxGeometry x="370.5" y="254" width="458" height="40" as="geometry" />
        </mxCell>
        <mxCell id="2hfiS1e1vaS1avcaZc8Z-22" value="" style="endArrow=none;html=1;rounded=0;sketch=1;hachureGap=4;jiggle=2;curveFitting=1;fontFamily=Architects Daughter;fontSource=https%3A%2F%2Ffonts.googleapis.com%2Fcss%3Ffamily%3DArchitects%2BDaughter;entryX=0.5;entryY=1;entryDx=0;entryDy=0;exitX=0.5;exitY=0;exitDx=0;exitDy=0;" parent="6XL7DA_fFjma-8zsQZxB-3" source="w2JN0z46ybfxZBrAL457-21" target="w2JN0z46ybfxZBrAL457-8" edge="1">
          <mxGeometry width="50" height="50" relative="1" as="geometry">
            <mxPoint x="938" y="369" as="sourcePoint" />
            <mxPoint x="932.3299999999999" y="172.0000000000001" as="targetPoint" />
          </mxGeometry>
        </mxCell>
        <mxCell id="2hfiS1e1vaS1avcaZc8Z-24" value="&lt;font style=&quot;font-size: 24px;&quot;&gt;change namespaces by nsexec() in C&lt;/font&gt;" style="text;html=1;align=left;verticalAlign=middle;whiteSpace=wrap;rounded=0;fontFamily=Architects Daughter;fontSource=https%3A%2F%2Ffonts.googleapis.com%2Fcss%3Ffamily%3DArchitects%2BDaughter;sketch=1;curveFitting=1;jiggle=2;strokeColor=none;" parent="6XL7DA_fFjma-8zsQZxB-3" vertex="1">
          <mxGeometry x="926" y="172" width="424" height="37" as="geometry" />
        </mxCell>
        <mxCell id="2hfiS1e1vaS1avcaZc8Z-25" value="&lt;font style=&quot;font-size: 24px;&quot;&gt;execve&lt;/font&gt;" style="text;html=1;align=left;verticalAlign=middle;whiteSpace=wrap;rounded=0;fontFamily=Architects Daughter;fontSource=https%3A%2F%2Ffonts.googleapis.com%2Fcss%3Ffamily%3DArchitects%2BDaughter;sketch=1;curveFitting=1;jiggle=2;strokeColor=none;" parent="6XL7DA_fFjma-8zsQZxB-3" vertex="1">
          <mxGeometry x="926" y="298" width="94" height="30" as="geometry" />
        </mxCell>
        <mxCell id="2hfiS1e1vaS1avcaZc8Z-28" value="&lt;font style=&quot;font-size: 24px;&quot;&gt;create the pty&lt;/font&gt;" style="text;html=1;align=left;verticalAlign=middle;whiteSpace=wrap;rounded=0;fontFamily=Architects Daughter;fontSource=https%3A%2F%2Ffonts.googleapis.com%2Fcss%3Ffamily%3DArchitects%2BDaughter;sketch=1;curveFitting=1;jiggle=2;strokeColor=none;" parent="6XL7DA_fFjma-8zsQZxB-3" vertex="1">
          <mxGeometry x="926" y="209" width="204" height="40" as="geometry" />
        </mxCell>
        <mxCell id="2hfiS1e1vaS1avcaZc8Z-30" value="&lt;font style=&quot;font-size: 24px;&quot;&gt;exit&lt;/font&gt;" style="text;html=1;align=left;verticalAlign=middle;whiteSpace=wrap;rounded=0;fontFamily=Architects Daughter;fontSource=https%3A%2F%2Ffonts.googleapis.com%2Fcss%3Ffamily%3DArchitects%2BDaughter;sketch=1;curveFitting=1;jiggle=2;strokeColor=none;" parent="6XL7DA_fFjma-8zsQZxB-3" vertex="1">
          <mxGeometry x="926" y="404" width="50" height="30" as="geometry" />
        </mxCell>
        <mxCell id="2hfiS1e1vaS1avcaZc8Z-31" value="" style="endArrow=none;html=1;rounded=0;sketch=1;hachureGap=4;jiggle=2;curveFitting=1;fontFamily=Architects Daughter;fontSource=https%3A%2F%2Ffonts.googleapis.com%2Fcss%3Ffamily%3DArchitects%2BDaughter;entryX=0.5;entryY=1;entryDx=0;entryDy=0;" parent="6XL7DA_fFjma-8zsQZxB-3" target="w2JN0z46ybfxZBrAL457-21" edge="1">
          <mxGeometry width="50" height="50" relative="1" as="geometry">
            <mxPoint x="925" y="437" as="sourcePoint" />
            <mxPoint x="924.6600000000001" y="399" as="targetPoint" />
          </mxGeometry>
        </mxCell>
        <mxCell id="w2JN0z46ybfxZBrAL457-8" value="&lt;font style=&quot;font-size: 24px;&quot;&gt;init&lt;/font&gt;" style="rounded=0;whiteSpace=wrap;html=1;sketch=1;hachureGap=4;jiggle=2;curveFitting=1;fontFamily=Architects Daughter;fontSource=https%3A%2F%2Ffonts.googleapis.com%2Fcss%3Ffamily%3DArchitects%2BDaughter;fillColor=none;" parent="6XL7DA_fFjma-8zsQZxB-3" vertex="1">
          <mxGeometry x="890" y="132" width="70" height="30" as="geometry" />
        </mxCell>
        <mxCell id="w2JN0z46ybfxZBrAL457-24" value="" style="endArrow=none;dashed=1;html=1;dashPattern=1 3;strokeWidth=2;rounded=0;sketch=1;hachureGap=4;jiggle=2;curveFitting=1;fontFamily=Architects Daughter;fontSource=https%3A%2F%2Ffonts.googleapis.com%2Fcss%3Ffamily%3DArchitects%2BDaughter;" parent="6XL7DA_fFjma-8zsQZxB-3" edge="1">
          <mxGeometry width="50" height="50" relative="1" as="geometry">
            <mxPoint x="830" y="414" as="sourcePoint" />
            <mxPoint x="926" y="414" as="targetPoint" />
          </mxGeometry>
        </mxCell>
        <mxCell id="w2JN0z46ybfxZBrAL457-25" value="" style="endArrow=none;dashed=1;html=1;dashPattern=1 3;strokeWidth=2;rounded=0;sketch=1;hachureGap=4;jiggle=2;curveFitting=1;fontFamily=Architects Daughter;fontSource=https%3A%2F%2Ffonts.googleapis.com%2Fcss%3Ffamily%3DArchitects%2BDaughter;exitX=1.008;exitY=0.367;exitDx=0;exitDy=0;exitPerimeter=0;entryX=0;entryY=0.5;entryDx=0;entryDy=0;" parent="6XL7DA_fFjma-8zsQZxB-3" source="2hfiS1e1vaS1avcaZc8Z-16" target="ojEMMkKgGveVm0mknlId-4" edge="1">
          <mxGeometry width="50" height="50" relative="1" as="geometry">
            <mxPoint x="840" y="357" as="sourcePoint" />
            <mxPoint x="920" y="157" as="targetPoint" />
          </mxGeometry>
        </mxCell>
        <mxCell id="w2JN0z46ybfxZBrAL457-26" value="" style="endArrow=none;dashed=1;html=1;dashPattern=1 3;strokeWidth=2;rounded=0;sketch=1;hachureGap=4;jiggle=2;curveFitting=1;fontFamily=Architects Daughter;fontSource=https%3A%2F%2Ffonts.googleapis.com%2Fcss%3Ffamily%3DArchitects%2BDaughter;entryX=0;entryY=0.5;entryDx=0;entryDy=0;" parent="6XL7DA_fFjma-8zsQZxB-3" target="w2JN0z46ybfxZBrAL457-8" edge="1">
          <mxGeometry width="50" height="50" relative="1" as="geometry">
            <mxPoint x="829" y="147" as="sourcePoint" />
            <mxPoint x="917.5" y="102" as="targetPoint" />
          </mxGeometry>
        </mxCell>
        <mxCell id="ojEMMkKgGveVm0mknlId-1" value="&lt;span style=&quot;font-size: 24px;&quot;&gt;setup to exchange the standard I/O between the host and the container&lt;/span&gt;" style="text;html=1;align=right;verticalAlign=middle;whiteSpace=wrap;rounded=0;fontFamily=Architects Daughter;fontSource=https%3A%2F%2Ffonts.googleapis.com%2Fcss%3Ffamily%3DArchitects%2BDaughter;sketch=1;curveFitting=1;jiggle=2;strokeColor=none;" parent="6XL7DA_fFjma-8zsQZxB-3" vertex="1">
          <mxGeometry y="37" width="828.5" height="43" as="geometry" />
        </mxCell>
        <mxCell id="ojEMMkKgGveVm0mknlId-3" value="&lt;span style=&quot;font-size: 24px;&quot;&gt;create the FIFO to receive the result of the container initialization&lt;/span&gt;" style="text;html=1;align=right;verticalAlign=middle;whiteSpace=wrap;rounded=0;fontFamily=Architects Daughter;fontSource=https%3A%2F%2Ffonts.googleapis.com%2Fcss%3Ffamily%3DArchitects%2BDaughter;sketch=1;curveFitting=1;jiggle=2;strokeColor=none;" parent="6XL7DA_fFjma-8zsQZxB-3" vertex="1">
          <mxGeometry x="50" y="80" width="778.5" height="43" as="geometry" />
        </mxCell>
        <mxCell id="w2JN0z46ybfxZBrAL457-21" value="&lt;font style=&quot;font-size: 24px;&quot;&gt;sh&lt;/font&gt;" style="rounded=0;whiteSpace=wrap;html=1;sketch=1;hachureGap=4;jiggle=2;curveFitting=1;fontFamily=Architects Daughter;fontSource=https%3A%2F%2Ffonts.googleapis.com%2Fcss%3Ffamily%3DArchitects%2BDaughter;fillColor=none;" parent="6XL7DA_fFjma-8zsQZxB-3" vertex="1">
          <mxGeometry x="890" y="348" width="70" height="30" as="geometry" />
        </mxCell>
        <mxCell id="ojEMMkKgGveVm0mknlId-4" value="&lt;span style=&quot;font-size: 24px;&quot;&gt;write the result of the initialization to the FIFO&lt;/span&gt;" style="text;html=1;align=left;verticalAlign=middle;whiteSpace=wrap;rounded=0;fontFamily=Architects Daughter;fontSource=https%3A%2F%2Ffonts.googleapis.com%2Fcss%3Ffamily%3DArchitects%2BDaughter;sketch=1;curveFitting=1;jiggle=2;strokeColor=none;" parent="6XL7DA_fFjma-8zsQZxB-3" vertex="1">
          <mxGeometry x="926" y="249" width="534" height="40" as="geometry" />
        </mxCell>
        <mxCell id="ojEMMkKgGveVm0mknlId-5" value="&lt;font style=&quot;font-size: 24px;&quot;&gt;exit&lt;/font&gt;" style="text;html=1;align=right;verticalAlign=middle;whiteSpace=wrap;rounded=0;fontFamily=Architects Daughter;fontSource=https%3A%2F%2Ffonts.googleapis.com%2Fcss%3Ffamily%3DArchitects%2BDaughter;sketch=1;curveFitting=1;jiggle=2;strokeColor=none;" parent="6XL7DA_fFjma-8zsQZxB-3" vertex="1">
          <mxGeometry x="778.5" y="447" width="50" height="30" as="geometry" />
        </mxCell>
      </root>
    </mxGraphModel>
  </diagram>
</mxfile>
